<?xml version="1.0" encoding="utf-8"?>
<!-- Generator: Adobe Illustrator 25.4.1, SVG Export Plug-In . SVG Version: 6.00 Build 0)  -->
<svg version="1.1" id="Layer_1" xmlns="http://www.w3.org/2000/svg" xmlns:xlink="http://www.w3.org/1999/xlink" x="0px" y="0px"
	 viewBox="0 0 95 92" style="enable-background:new 0 0 95 92;" xml:space="preserve">
<g transform="translate(0.000000,92.000000) scale(0.100000,-0.100000)">
	<path d="M668,868c-97,46-147,52-418,52H0V726c0-177,2-195,17-200c10-2,70-6,133-8l115-3l-3,36c-16,182,197,289,328,165
		c45-42,63-84,66-151l3-60l103,3c57,2,116,5,131,8c26,5,27,8,21,42C895,675,785,813,668,868z M788,532l-108-3v33
		c0,118-102,227-214,228c-128,1-226-95-226-222v-36l-62,4C40,546,28,549,36,573c45,156,185,286,339,315c68,13,81,13,155,1
		c144-22,265-109,324-232c19-40,36-83,38-97l3-25L788,532z"/>
	<path d="M695,489c-44-4-132-19-195-33c-231-50-327-60-429-47l-63,8l6-46c3-25,11-50,17-56c17-16,230-9,398,14c159,22,435,29,445,12
		c3-5-27-12-67-16c-115-11-203-30-337-74c-69-22-176-50-237-62c-73-14-113-26-113-35c0-14,56-64,73-64c38,0,195,34,314,68
		c147,42,214,57,305,67c56,6,56,7,77,54c21,50,42,162,37,196c-3,18-11,20-77,21C808,497,739,494,695,489z M898,424l-3-57l-160,2
		c-115,1-204-4-315-19c-140-19-364-31-373-19c-2,2-7,15-10,29l-6,25l122,1c100,1,154,7,299,38c179,37,286,52,391,55l58,1L898,424z
		 M871,282c-12-28-17-30-101-41c-90-13-158-29-311-74c-47-14-127-33-178-42c-92-17-93-17-113,3c-24,24-28,22,102,47
		c47,10,146,36,220,60s173,49,220,55c47,7,103,15,125,19s42,6,44,5C881,312,877,298,871,282z"/>
	<path d="M735,189c-27-6-108-27-180-49c-72-21-167-49-212-61c-46-11-83-25-83-30s32-18,71-30C438-14,551-6,651,41
		c68,33,189,129,189,150C840,202,802,201,735,189z M764,138C648,36,494-3,355,34l-50,13l45,12c25,6,113,32,195,56
		c137,41,244,65,254,59C801,172,785,156,764,138z"/>
</g>
</svg>
