 <svg version="1.0" xmlns="http://www.w3.org/2000/svg"  width="300.000000pt" height="200.000000pt" viewBox="0 0 300.000000 200.000000"  preserveAspectRatio="xMidYMid meet">  <g transform="translate(0.000000,200.000000) scale(0.100000,-0.100000)" fill="#000000" stroke="none"> <path d="M173 1860 c72 -74 134 -133 137 -130 9 10 170 5 170 -5 0 -5 -15 -10 -32 -10 -23 0 -33 -5 -33 -15 0 -9 -9 -15 -22 -15 -24 0 -38 -10 -38 -28 -1 -7 -6 -11 -12 -10 -16 3 -48 -36 -48 -61 0 -15 -6 -21 -21 -20 -14 1 -21 -5 -20 -15 1 -9 -3 -16 -9 -16 -5 0 -9 5 -7 10 2 6 -3 4 -10 -3 -7 -7 -13 -23 -13 -35 0 -16 -6 -22 -21 -21 -14 1 -21 -5 -20 -15 1 -9 -3 -16 -9 -16 -5 0 -9 4 -7 9 2 5 -4 4 -12 -3 -9 -7 -14 -17 -11 -21 5 -7 -34 -47 -41 -42 -11 6 -15 0 -7 -10 5 -7 9 -19 9 -25 -1 -15 -21 -18 -21 -4 0 5 -4 13 -8 18 -5 4 -7 1 -5 -7 2 -8 -2 -14 -8 -13 -6 1 -11 -8 -10 -20 0 -12 -4 -21 -10 -20 -6 1 -10 -12 -10 -30 1 -18 -4 -31 -10 -30 -11 2 -13 -55 -1 -73 3 -6 3 -14 -1 -18 -3 -4 -7 -23 -7 -42 l-1 -34 23 22 c13 12 23 17 23 12 0 -5 119 110 264 255 146 146 264 269 263 275 -1 6 3 10 9 9 12 -2 40 24 46 42 2 6 7 9 13 7 5 -2 2 5 -8 16 -9 10 -14 22 -10 27 5 4 3 5 -3 2 -14 -8 -207 186 -197 198 4 4 3 5 -4 1 -12 -6 -28 10 -28 29 0 6 -67 10 -177 10 l-178 0 133 -135z m211 121 c-3 -3 52 -62 122 -132 77 -78 122 -129 115 -133 -6 -4 -9 -11 -6 -16 3 -4 -2 -13 -10 -20 -8 -7 -15 -9 -15 -5 0 4 -7 2 -15 -5 -8 -7 -13 -15 -10 -19 2 -4 -113 -124 -256 -267 -142 -142 -259 -255 -259 -250 0 5 -8 2 -18 -8 -18 -15 -19 -15 -18 6 1 13 5 28 9 35 4 6 3 14 -1 17 -11 7 -9 46 3 66 5 8 10 22 10 30 0 8 5 22 10 30 5 8 10 18 11 23 1 4 2 10 3 13 0 4 7 1 15 -5 24 -20 42 20 22 49 -6 8 -6 12 -1 7 12 -10 56 33 48 47 -4 6 0 5 9 -2 13 -10 18 -9 29 4 8 10 13 19 12 21 -2 1 0 3 5 4 17 2 30 22 27 41 -3 15 -1 17 9 9 14 -12 33 2 35 24 1 6 4 10 9 10 17 1 30 16 27 33 -3 19 23 54 35 47 9 -5 28 15 29 30 1 6 9 10 19 10 22 0 44 14 37 24 -2 5 9 7 25 6 34 -3 57 17 38 32 -7 5 -52 9 -100 8 l-88 -1 -120 121 -120 120 164 0 c91 0 162 -2 160 -4z"></path> <path d="M190 1865 l110 -111 88 1 c64 1 92 -3 105 -13 16 -14 16 -17 1 -33 -9 -10 -24 -16 -34 -14 -10 2 -26 -5 -35 -15 -9 -10 -25 -17 -36 -15 -11 2 -17 0 -15 -4 3 -5 -3 -16 -14 -26 -11 -10 -20 -15 -20 -10 0 4 -6 2 -14 -4 -8 -7 -13 -20 -11 -29 3 -21 -24 -54 -38 -45 -5 3 -7 1 -4 -4 8 -13 -27 -46 -38 -36 -4 5 -5 3 -2 -3 8 -14 -26 -47 -38 -37 -4 5 -5 3 -2 -3 4 -6 -2 -19 -13 -29 -11 -10 -20 -14 -20 -10 0 5 -11 -2 -24 -14 -13 -12 -23 -30 -21 -39 1 -9 -4 -25 -13 -34 -12 -15 -18 -16 -30 -5 -10 7 -13 8 -9 1 4 -7 1 -17 -7 -23 -8 -7 -13 -20 -11 -29 1 -9 -2 -23 -8 -31 -14 -17 -17 -60 -5 -67 4 -3 5 -11 1 -17 -4 -7 -8 -18 -9 -25 -2 -10 1 -11 12 -1 8 6 14 8 14 3 0 -5 114 106 254 245 140 140 253 258 251 262 -5 7 34 46 41 42 2 -2 3 -1 2 0 -2 2 2 10 9 19 10 12 -9 35 -112 138 l-125 125 -145 0 -145 0 110 -110z m300 -20 c82 -82 116 -122 110 -130 -6 -7 -8 -15 -5 -18 3 -4 2 -5 -2 -2 -8 6 -54 -36 -48 -45 6 -9 -481 -493 -500 -496 -12 -2 -14 1 -5 11 6 7 7 16 2 19 -11 7 -9 46 3 66 5 8 10 22 10 30 0 21 15 41 24 35 12 -7 46 34 46 55 0 20 24 52 34 45 13 -7 166 154 166 175 0 11 4 20 8 19 5 -1 22 12 38 27 16 15 29 24 29 19 0 -5 10 0 23 11 12 11 29 20 37 19 8 -1 25 8 38 19 22 20 22 20 2 41 -17 18 -30 21 -110 20 l-90 -1 -100 101 -100 100 135 0 135 0 120 -120z"></path> <path d="M210 1865 l90 -91 88 1 c80 1 89 -1 115 -24 l27 -25 -26 -27 c-15 -15 -34 -26 -44 -24 -10 2 -26 -5 -35 -16 -10 -10 -21 -17 -25 -14 -4 2 -17 -7 -30 -20 -13 -13 -27 -22 -31 -19 -4 2 -6 -4 -4 -14 2 -13 -24 -47 -86 -108 -49 -49 -89 -85 -89 -80 0 5 -6 3 -14 -3 -8 -7 -13 -20 -11 -31 3 -17 -44 -73 -62 -71 -4 1 -8 -7 -8 -16 0 -10 -5 -25 -10 -33 -12 -20 -14 -59 -3 -66 4 -3 5 -11 2 -17 -4 -7 104 98 239 233 136 134 244 246 241 249 -2 3 11 21 31 41 l35 36 -115 114 -115 115 -125 0 -125 0 90 -90z m270 -30 l110 -109 -37 -38 c-20 -21 -33 -38 -28 -38 6 0 -96 -105 -224 -234 -129 -129 -238 -233 -241 -231 -10 6 -6 51 7 66 6 8 9 22 8 32 -2 9 0 15 4 12 12 -7 66 54 66 76 0 10 5 19 10 19 14 0 195 182 190 190 -2 4 9 20 25 35 17 16 30 25 30 20 0 -5 10 0 23 11 12 11 29 20 37 19 8 -1 30 12 48 29 l32 30 -30 31 c-29 30 -32 31 -120 30 l-90 -1 -80 81 -80 80 115 0 115 0 110 -110z"></path> <path d="M230 1865 l70 -71 88 2 c87 1 87 0 125 -35 l37 -35 -36 -37 c-22 -22 -44 -36 -54 -34 -10 2 -26 -5 -35 -16 -10 -10 -21 -17 -25 -14 -4 2 -18 -7 -30 -20 -13 -14 -19 -25 -14 -25 5 0 -36 -45 -90 -99 -55 -55 -103 -98 -107 -95 -4 2 -6 -4 -4 -13 1 -10 -15 -37 -38 -60 -23 -24 -37 -43 -33 -43 5 0 2 -7 -5 -16 -7 -9 -14 -27 -15 -41 -1 -20 45 21 227 203 126 126 226 230 223 233 -2 3 11 21 31 41 l35 36 -105 104 -105 105 -105 0 -105 0 70 -70z m240 -40 l100 -99 -35 -36 c-20 -20 -33 -38 -31 -41 3 -3 -93 -103 -214 -224 -120 -120 -218 -211 -216 -203 1 9 8 23 15 32 7 9 10 16 5 16 -4 0 12 20 36 45 24 25 40 45 35 45 -5 0 40 50 100 110 60 61 106 110 101 110 -5 0 -1 9 9 20 10 11 21 17 25 15 4 -2 15 4 25 14 9 11 25 18 35 16 10 -2 34 13 59 39 l41 42 -42 40 -43 41 -87 -1 -88 -2 -60 61 -60 61 95 -1 95 0 100 -100z"></path> <path d="M250 1865 l50 -50 85 0 85 -1 -50 51 -50 50 -85 0 -85 1 50 -51z m160 0 l40 -41 -75 1 c-74 0 -76 1 -115 40 l-40 41 75 -1 c74 0 76 -1 115 -40z"></path> <path d="M270 1866 c27 -28 36 -31 95 -31 l65 -1 -30 30 c-27 28 -36 31 -95 31 l-65 1 30 -30z m120 -2 l20 -20 -55 1 c-41 0 -60 5 -75 21 l-20 20 55 -1 c41 0 60 -5 75 -21z"></path> <path d="M290 1866 c6 -6 31 -11 55 -11 31 -1 42 2 35 9 -6 6 -31 11 -55 11 -31 1 -42 -2 -35 -9z"></path> <path d="M485 1641 c-3 -6 -14 -8 -24 -6 -11 2 -27 -5 -36 -16 -10 -10 -21 -16 -25 -14 -4 3 -13 -2 -20 -10 -7 -8 -9 -15 -4 -15 5 0 -41 -49 -101 -110 -60 -60 -105 -110 -100 -110 5 0 -11 -20 -35 -45 -24 -25 -40 -45 -36 -45 5 0 1 -9 -9 -20 -10 -11 -16 -20 -14 -20 2 0 99 95 214 210 115 116 207 210 203 210 -4 0 -9 -4 -13 -9z m-192 -193 c-98 -98 -180 -178 -182 -178 -3 0 15 20 39 45 24 25 40 45 35 45 -5 0 40 50 100 110 61 61 109 114 109 118 -1 4 2 6 6 5 4 -1 15 6 24 16 9 10 23 18 32 18 8 0 -65 -81 -163 -179z"></path> <path d="M425 1600 c-10 -11 -23 -17 -29 -13 -6 3 -7 2 -3 -2 4 -5 -41 -59 -100 -120 -94 -96 -91 -94 25 20 72 71 132 131 132 132 0 7 -8 1 -25 -17z"></path> <path d="M1060 1996 c0 -2 8 -10 18 -17 15 -13 16 -12 3 4 -13 16 -21 21 -21 13z"></path> <path d="M1038 1793 l-208 -208 -55 55 c-30 30 -55 50 -55 44 0 -5 25 -34 55 -64 l55 -55 218 218 c119 119 212 217 207 217 -6 0 -103 -93 -217 -207z"></path> <path d="M1310 1695 l-305 -304 45 -46 c25 -26 54 -51 65 -57 11 -6 -5 15 -35 46 l-54 56 299 300 c165 166 302 303 304 305 2 3 0 5 -4 5 -5 0 -147 -137 -315 -305z"></path> <path d="M1850 1407 c-327 -326 -777 -777 -1000 -1003 -223 -225 46 41 598 591 551 550 1002 1001 1002 1002 0 8 -55 -46 -600 -590z"></path> <path d="M2337 1782 l-217 -217 62 -63 63 -62 -160 -160 c-87 -87 -157 -161 -154 -164 3 -3 176 167 384 377 209 210 367 370 350 357 -16 -13 -116 -109 -221 -213 l-192 -190 -57 56 c-45 43 -56 59 -47 69 6 7 87 90 179 185 224 229 238 243 232 243 -2 0 -102 -98 -222 -218z"></path> <path d="M2759 1933 l-34 -38 38 34 c20 19 37 36 37 38 0 8 -8 0 -41 -34z"></path> <path d="M680 1957 c0 -1 35 -36 78 -77 l77 -75 -75 78 c-69 71 -80 82 -80 74z"></path> <path d="M1000 1885 c-41 -41 -72 -75 -69 -75 2 0 38 34 79 75 41 41 72 75 69 75 -2 0 -38 -34 -79 -75z"></path> <path d="M944 1928 l-19 -23 23 19 c21 18 27 26 19 26 -2 0 -12 -10 -23 -22z"></path> <path d="M1869 1933 c-13 -16 -12 -17 4 -4 9 7 17 15 17 17 0 8 -8 3 -21 -13z"></path> <path d="M600 1936 c0 -2 8 -10 18 -17 15 -13 16 -12 3 4 -13 16 -21 21 -21 13z"></path> <path d="M2790 1887 l-23 -32 29 27 c15 15 26 30 23 33 -3 2 -16 -10 -29 -28z"></path> <path d="M675 1860 c21 -22 41 -40 44 -40 3 0 -13 18 -34 40 -21 22 -41 40 -44 40 -3 0 13 -18 34 -40z"></path> <path d="M65 1860 c10 -11 20 -20 23 -20 3 0 -3 9 -13 20 -10 11 -20 20 -23 20 -3 0 3 -9 13 -20z"></path> <path d="M1762 1828 l-54 -51 53 -51 c29 -28 45 -41 35 -29 -10 12 -16 29 -12 38 3 10 2 13 -5 10 -5 -4 -21 1 -36 10 l-25 17 53 54 c68 69 61 70 -9 2z"></path> <path d="M859 1843 l-24 -28 28 24 c25 23 32 31 24 31 -2 0 -14 -12 -28 -27z"></path> <path d="M2775 1649 c-115 -116 -244 -244 -286 -285 l-76 -75 -47 42 c-26 23 -45 46 -44 51 2 5 80 86 173 181 94 95 186 190 205 212 19 22 -133 -126 -338 -330 -204 -203 -372 -373 -372 -378 0 -4 69 62 153 148 84 85 157 155 162 155 5 0 32 -22 60 -50 l50 -50 295 295 c162 162 290 295 285 294 -6 0 -104 -95 -220 -210z"></path> <path d="M765 1770 c21 -22 41 -40 44 -40 3 0 -13 18 -34 40 -21 22 -41 40 -44 40 -3 0 13 -18 34 -40z"></path> <path d="M140 1791 c0 -6 4 -13 10 -16 6 -3 7 1 4 9 -7 18 -14 21 -14 7z"></path> <path d="M1362 1587 c-111 -111 -202 -208 -202 -214 0 -7 15 -26 32 -42 l33 -31 -610 -610 c-336 -335 -612 -616 -614 -623 -2 -6 277 268 620 610 l624 623 -40 40 -39 40 204 205 c113 113 203 205 200 205 -3 0 -96 -91 -208 -203z"></path> <path d="M160 1603 l-125 -128 128 125 c118 116 132 130 124 130 -1 0 -58 -57 -127 -127z"></path> <path d="M2140 865 c-469 -470 -852 -857 -849 -859 6 -6 1702 1687 1707 1704 2 5 2 10 0 10 -2 0 -388 -385 -858 -855z"></path> <path d="M110 1633 c-41 -42 -66 -70 -55 -62 32 22 144 139 134 139 -3 0 -38 -35 -79 -77z"></path> <path d="M348 1338 c-191 -194 -348 -357 -348 -362 0 -5 1 -7 2 -5 2 3 163 165 358 362 195 196 350 357 345 357 -6 1 -166 -158 -357 -352z"></path> <path d="M1692 1503 c-307 -317 -316 -327 -89 -103 130 129 237 236 237 237 0 14 -35 -17 -148 -134z"></path> <path d="M784 1532 c-16 -15 -40 -41 -54 -57 -13 -17 1 -5 33 25 31 30 57 56 57 57 0 8 -10 1 -36 -25z"></path> <path d="M1287 1442 c-31 -32 -57 -62 -57 -68 0 -14 117 -134 131 -134 14 0 141 122 134 129 -3 2 -34 -23 -68 -57 l-63 -62 -64 65 -64 65 59 60 c33 33 57 60 54 60 -2 0 -30 -26 -62 -58z"></path> <path d="M2845 1430 l-49 -50 29 -28 c16 -15 22 -18 14 -7 -8 11 -18 23 -23 27 -5 3 4 19 20 35 35 34 69 73 63 73 -3 0 -27 -23 -54 -50z"></path> <path d="M1420 1464 c0 -13 68 -79 75 -73 2 3 -13 23 -35 44 -22 22 -40 35 -40 29z"></path> <path d="M661 1407 c-29 -35 -30 -38 -7 -17 24 22 52 60 44 60 -2 0 -18 -19 -37 -43z"></path> <path d="M1729 1373 c-13 -16 -12 -17 4 -4 9 7 17 15 17 17 0 8 -8 3 -21 -13z"></path> <path d="M965 1350 c-10 -11 -15 -20 -11 -20 11 0 39 30 34 36 -3 2 -13 -5 -23 -16z"></path> <path d="M579 1323 l-24 -28 28 24 c25 23 32 31 24 31 -2 0 -14 -12 -28 -27z"></path> <path d="M860 1243 c-41 -43 -62 -67 -45 -53 47 39 136 130 127 130 -4 0 -41 -35 -82 -77z"></path> <path d="M519 1263 l-24 -28 28 24 c25 23 32 31 24 31 -2 0 -14 -12 -28 -27z"></path> <path d="M1579 1273 c-13 -16 -12 -17 4 -4 16 13 21 21 13 21 -2 0 -10 -8 -17 -17z"></path> <path d="M2915 1260 c10 -11 20 -20 23 -20 3 0 -3 9 -13 20 -10 11 -20 20 -23 20 -3 0 3 -9 13 -20z"></path> <path d="M560 703 l-565 -568 555 550 c489 485 588 585 578 585 -2 0 -257 -255 -568 -567z"></path> <path d="M1609 1253 c-13 -16 -12 -17 4 -4 16 13 21 21 13 21 -2 0 -10 -8 -17 -17z"></path> <path d="M660 628 c-344 -346 -620 -628 -615 -628 5 0 288 278 628 618 l618 617 21 -25 c11 -14 25 -24 31 -22 5 2 7 -5 3 -15 -6 -15 -5 -16 6 -5 10 10 5 19 -27 50 l-40 37 -625 -627z"></path> <path d="M1509 1233 c-13 -16 -12 -17 4 -4 16 13 21 21 13 21 -2 0 -10 -8 -17 -17z"></path> <path d="M1711 1172 c-155 -163 -167 -179 -48 -62 70 69 127 126 127 127 0 13 -25 -8 -79 -65z"></path> <path d="M469 1213 c-13 -16 -12 -17 4 -4 9 7 17 15 17 17 0 8 -8 3 -21 -13z"></path> <path d="M2970 1205 c13 -14 26 -25 28 -25 3 0 -5 11 -18 25 -13 14 -26 25 -28 25 -3 0 5 -11 18 -25z"></path> <path d="M1449 1173 l-24 -28 28 24 c25 23 32 31 24 31 -2 0 -14 -12 -28 -27z"></path> <path d="M2659 1187 c6 -8 9 -16 6 -19 -3 -2 2 -5 10 -5 13 0 13 3 -2 19 -19 21 -31 25 -14 5z"></path> <path d="M950 643 c-448 -450 -464 -468 -95 -100 248 246 454 445 458 442 4 -3 5 -2 2 2 -3 4 38 51 92 105 54 54 95 98 93 98 -3 0 -250 -246 -550 -547z"></path> <path d="M1516 1181 c-4 -5 -2 -12 3 -15 5 -4 12 -2 15 3 4 5 2 12 -3 15 -5 4 -12 2 -15 -3z"></path> <path d="M630 1015 c-80 -80 -141 -145 -136 -145 11 0 290 280 284 285 -2 2 -69 -61 -148 -140z"></path> <path d="M2626 1152 c-3 -5 1 -9 9 -9 8 0 12 4 9 9 -3 4 -7 8 -9 8 -2 0 -6 -4 -9 -8z"></path> <path d="M345 1088 l-60 -63 63 60 c34 33 62 61 62 62 0 8 -10 -1 -65 -59z"></path> <path d="M950 803 l-345 -348 348 345 c322 321 351 350 344 350 -1 0 -157 -156 -347 -347z"></path> <path d="M2585 1120 c1 -16 -4 -35 -11 -41 -14 -11 -15 -10 -18 13 0 6 -8 12 -17 13 -11 2 -16 -4 -15 -19 1 -16 -5 -21 -24 -21 -20 0 -25 -5 -25 -25 0 -20 -5 -25 -22 -24 -13 1 -20 -2 -18 -6 3 -4 -2 -13 -10 -20 -8 -7 -15 -9 -15 -4 0 4 -19 -11 -43 -34 -24 -23 -47 -39 -52 -35 -4 5 -5 3 -2 -3 8 -14 -17 -37 -28 -26 -5 4 -5 2 -2 -4 8 -14 -26 -47 -38 -37 -4 5 -5 3 -2 -3 8 -14 -146 -167 -158 -157 -4 4 -5 3 -2 -3 8 -14 -26 -47 -38 -37 -4 5 -5 3 -2 -3 4 -7 0 -17 -8 -24 -8 -7 -15 -9 -15 -5 0 4 -7 2 -15 -5 -8 -7 -13 -16 -10 -20 7 -11 -20 -31 -30 -22 -5 4 -5 2 -2 -4 6 -10 -74 -97 -87 -95 -3 1 -5 -1 -3 -3 1 -3 -13 -20 -30 -38 l-33 -34 78 1 c42 1 83 -3 91 -9 8 -6 16 -10 18 -8 1 1 3 -1 3 -5 1 -13 63 -72 70 -68 9 5 28 -15 29 -30 1 -5 5 -10 10 -10 13 0 26 -14 26 -28 0 -7 5 -12 12 -12 15 0 28 -13 28 -28 0 -7 5 -12 12 -12 15 0 28 -13 28 -28 0 -7 5 -12 12 -12 15 0 28 -13 28 -28 0 -7 5 -12 12 -12 14 0 28 -13 28 -26 0 -5 3 -8 6 -6 10 3 49 -35 44 -43 -2 -4 2 -7 10 -7 8 0 13 4 12 8 -1 4 3 7 8 7 6 0 9 -5 7 -11 -2 -7 0 -9 4 -5 4 4 13 3 20 -3 8 -7 14 -7 19 1 4 6 2 9 -3 8 -6 -2 -10 2 -11 7 -1 6 7 10 17 10 9 -1 16 -6 15 -12 -1 -6 5 -10 15 -8 9 1 23 -2 30 -8 6 -5 12 -6 12 -2 0 4 6 2 14 -4 8 -7 17 -8 20 -3 6 9 -293 312 -309 312 -5 0 -10 6 -10 13 0 6 -7 12 -15 12 -8 0 -15 5 -15 10 0 17 -16 36 -25 30 -4 -3 -13 2 -20 10 -11 13 -7 19 11 17 3 -1 19 12 34 28 16 17 25 30 20 30 -5 0 2 11 15 25 12 13 28 22 34 18 6 -3 5 0 -1 7 -17 18 4 45 22 30 9 -8 15 -8 20 0 3 5 3 10 -1 10 -3 0 -1 7 6 15 7 8 9 15 5 15 -4 0 -2 6 4 14 7 8 21 13 31 11 10 -2 27 7 39 19 21 23 21 23 1 41 -11 10 -17 22 -14 27 3 5 17 -1 31 -14 15 -14 23 -18 21 -8 -2 8 2 14 9 15 7 0 18 6 25 13 8 9 9 12 2 10 -7 -2 -12 2 -13 7 -1 6 3 10 8 10 5 0 13 4 18 9 4 5 3 6 -3 3 -7 -4 -17 -1 -23 7 -13 15 -3 29 13 19 19 -13 53 -10 53 3 0 7 -3 13 -6 12 -18 -2 -22 4 -11 17 7 8 17 12 23 8 5 -3 7 -1 4 4 -7 11 26 47 35 38 3 -3 13 5 24 17 l19 23 -21 -18 c-18 -15 -23 -15 -33 -4 -9 11 -8 17 2 26 8 6 17 7 21 3 4 -4 6 0 4 8 -2 9 5 14 19 15 12 0 25 4 30 8 4 5 3 7 -2 5 -9 -3 -17 6 -14 17 1 3 2 11 3 18 1 6 8 11 16 9 11 -3 11 0 0 12 -7 9 -9 16 -5 16 4 0 3 6 -3 13 -6 6 -11 15 -11 20 -2 15 -14 11 -17 -5 -1 -10 3 -16 9 -15 11 2 17 -21 9 -36 -2 -5 -19 6 -38 24 -32 31 -38 63 -6 37 9 -7 13 -8 9 -2 -7 13 16 38 26 28 3 -3 4 2 3 13 -2 10 1 23 5 29 6 7 4 16 -5 23 -11 9 -13 6 -11 -19z m-38 -27 c-4 -3 -1 -13 5 -22 7 -9 8 -13 4 -9 -5 4 -15 3 -23 -4 -12 -9 -7 -19 27 -53 27 -27 38 -45 31 -50 -6 -3 -8 -12 -5 -18 4 -7 3 -9 -1 -4 -13 12 -67 -44 -55 -58 7 -8 -1 -22 -25 -45 -25 -24 -32 -37 -24 -46 7 -9 6 -12 -5 -10 -9 1 -19 5 -22 9 -13 13 -35 -14 -24 -28 8 -9 8 -15 0 -20 -8 -5 -7 -11 2 -23 8 -10 9 -13 1 -9 -6 4 -15 2 -18 -3 -5 -8 -13 -6 -25 5 -14 13 -19 13 -29 2 -8 -11 -6 -18 9 -32 19 -17 19 -20 4 -36 -9 -10 -24 -16 -34 -14 -10 2 -26 -5 -36 -16 -9 -10 -14 -19 -9 -19 4 0 2 -6 -4 -13 -6 -8 -7 -18 -3 -23 4 -4 0 -3 -9 4 -13 10 -19 8 -34 -8 -10 -11 -14 -20 -10 -20 5 0 -4 -14 -20 -30 -16 -17 -25 -30 -20 -30 5 0 -2 -11 -15 -25 -12 -13 -26 -22 -30 -20 -4 3 -13 -1 -19 -9 -8 -10 -6 -18 10 -32 12 -10 24 -18 28 -16 3 1 6 -1 6 -5 0 -17 17 -33 28 -27 7 4 9 4 5 -1 -9 -9 11 -37 21 -30 4 2 75 -64 157 -147 82 -84 141 -146 132 -139 -10 8 -18 10 -18 6 0 -4 -7 -2 -15 5 -8 7 -15 9 -15 5 0 -5 -8 -1 -17 8 -21 18 -33 19 -50 6 -7 -7 -14 -6 -18 1 -5 8 -11 8 -19 1 -9 -8 -18 -5 -31 9 -10 11 -23 17 -29 13 -6 -3 -8 -2 -3 2 10 12 -23 46 -37 38 -6 -3 -8 -2 -3 2 10 12 -23 46 -37 38 -6 -3 -8 -2 -3 2 10 12 -23 46 -37 38 -6 -3 -8 -2 -3 2 10 12 -23 46 -37 38 -6 -3 -8 -2 -3 2 10 11 -23 46 -36 38 -5 -3 -7 -1 -4 4 4 6 -2 18 -13 28 -11 10 -20 14 -20 10 0 -5 -13 4 -30 20 -16 15 -27 31 -25 35 3 4 -2 13 -10 20 -8 7 -15 9 -15 5 0 -4 -6 -3 -12 2 -7 5 -43 9 -80 8 l-68 -1 25 26 c14 15 22 30 18 35 -5 4 -3 5 3 2 10 -6 133 110 134 126 0 4 3 6 6 6 4 -1 94 86 200 192 107 107 194 190 194 185 0 -5 11 1 25 14 14 13 25 20 25 16 0 -5 6 -3 14 3 8 7 13 21 11 31 -3 14 1 18 16 15 17 -3 31 8 35 28 3 15 4 17 11 17 3 0 3 -3 0 -7z"></path> <path d="M2496 1041 c-4 -6 -4 -11 0 -11 4 0 -1 -9 -11 -20 -10 -11 -21 -17 -25 -15 -4 2 -15 -4 -25 -15 -10 -11 -21 -18 -24 -15 -4 2 -92 -81 -196 -185 -104 -104 -193 -186 -199 -183 -6 3 -7 2 -3 -2 4 -5 -31 -48 -78 -95 l-85 -86 57 1 c32 1 64 -3 71 -8 6 -5 12 -6 12 -2 0 5 9 0 20 -10 11 -10 17 -22 13 -28 -3 -5 -1 -7 5 -3 10 6 27 -10 27 -26 0 -5 3 -7 7 -5 4 1 43 -33 85 -75 43 -43 81 -78 86 -78 4 0 7 -3 7 -7 1 -14 63 -72 74 -70 6 1 10 -3 9 -9 -1 -7 7 -20 19 -30 12 -11 18 -14 15 -7 -11 18 9 25 23 8 10 -12 15 -13 28 -3 19 16 16 17 41 -6 12 -11 21 -16 21 -11 0 4 8 2 18 -6 9 -7 -43 49 -117 124 -74 75 -138 134 -141 132 -11 -7 -71 61 -63 70 5 4 3 5 -3 2 -6 -4 -21 4 -33 17 l-21 23 20 18 c11 10 20 14 20 10 0 -4 9 0 20 10 11 10 18 21 15 25 -2 4 7 17 20 30 13 13 22 26 20 30 -5 7 35 48 48 49 4 1 7 4 8 9 1 13 42 51 50 47 4 -3 10 -1 14 5 4 6 12 7 18 3 7 -3 4 2 -5 13 -25 28 -25 30 -4 53 18 19 21 20 37 5 10 -9 19 -11 23 -5 4 5 2 12 -4 16 -14 9 -1 27 13 19 8 -5 8 -3 0 6 -19 21 14 55 36 38 9 -7 13 -8 8 -3 -4 5 10 27 30 49 21 22 31 35 22 28 -9 -6 -19 -9 -23 -5 -3 4 17 31 46 61 29 29 46 52 38 50 -8 -2 -14 2 -13 8 3 17 -64 78 -71 65z m59 -59 c-3 -3 0 -10 5 -17 6 -8 -4 -25 -35 -55 -31 -30 -41 -47 -35 -55 7 -8 2 -19 -15 -35 -14 -13 -25 -20 -25 -15 0 5 -11 -2 -25 -15 -13 -12 -22 -26 -20 -31 3 -4 1 -11 -5 -14 -8 -5 -7 -12 2 -23 11 -14 9 -14 -8 0 -20 17 -21 17 -40 -5 -18 -19 -21 -30 -15 -52 2 -10 1 -15 -5 -14 -12 2 -63 -55 -57 -64 3 -6 2 -7 -4 -4 -5 4 -23 -7 -38 -23 -16 -17 -25 -30 -20 -30 5 0 -3 -13 -18 -28 -15 -16 -25 -31 -22 -34 3 -3 -1 -11 -10 -18 -8 -7 -15 -9 -15 -4 0 4 -11 -3 -25 -16 l-26 -24 62 -62 c35 -35 65 -61 69 -59 3 2 60 -51 126 -118 65 -66 110 -114 99 -105 -23 19 -35 20 -51 7 -7 -6 -16 -4 -24 6 -10 12 -16 13 -26 4 -8 -6 -14 -9 -14 -5 0 15 -2 22 -12 33 -6 7 -14 11 -18 8 -4 -2 -20 9 -35 25 -16 17 -25 30 -21 30 5 0 3 7 -4 15 -7 8 -15 13 -19 10 -4 -2 -41 29 -81 70 -40 41 -78 71 -83 68 -6 -3 -7 -2 -4 4 3 5 -12 27 -33 48 -22 22 -40 35 -40 31 0 -5 -6 -4 -12 1 -7 5 -35 9 -61 8 l-48 -1 268 268 c147 147 269 265 272 263 2 -3 15 5 28 17 13 12 23 18 23 13 0 -5 11 2 25 15 13 12 22 28 18 34 -3 6 8 -2 25 -18 18 -16 30 -32 27 -34z"></path> <path d="M2490 995 c-12 -13 -26 -22 -30 -20 -4 3 -15 -4 -25 -15 -10 -11 -21 -18 -24 -15 -4 2 -123 -112 -265 -254 -257 -257 -257 -257 -219 -256 21 1 44 -3 51 -8 6 -5 12 -6 12 -1 0 5 54 -45 120 -111 66 -66 120 -116 120 -111 0 5 9 1 20 -9 11 -10 17 -21 15 -25 -7 -12 35 -45 59 -45 15 0 21 -6 20 -23 -1 -17 2 -20 11 -12 9 7 16 6 25 -5 9 -11 16 -12 25 -5 6 5 16 7 21 3 5 -4 -35 38 -89 93 -55 56 -106 101 -115 100 -10 0 -18 4 -20 9 -1 6 -27 35 -57 65 l-55 56 29 28 c16 15 32 28 35 27 3 -1 6 2 5 5 -1 3 12 19 27 35 15 16 24 29 19 29 -5 0 19 29 55 65 35 35 68 61 73 58 6 -4 7 -1 1 8 -4 8 -9 19 -10 26 -2 11 49 66 60 64 3 -1 6 2 5 5 -2 11 54 63 64 61 6 -1 12 5 12 13 1 8 7 14 15 12 11 -3 10 2 -3 16 -12 13 -15 22 -8 27 6 3 11 3 11 -1 0 -4 11 3 25 16 13 12 23 27 22 33 -1 6 4 12 11 13 6 1 15 2 18 3 4 0 1 7 -5 14 -6 8 -9 16 -6 19 3 3 -3 12 -13 21 -17 16 -20 15 -42 -8z m45 -13 c-3 -3 1 -12 7 -21 7 -9 8 -13 4 -9 -11 9 -38 -11 -31 -22 2 -4 -4 -15 -15 -25 -11 -10 -20 -15 -20 -10 0 4 -7 2 -15 -5 -11 -9 -12 -16 -5 -25 8 -9 8 -15 0 -20 -6 -3 -7 -12 -4 -18 4 -7 3 -9 -1 -4 -11 10 -76 -53 -68 -66 3 -6 2 -7 -4 -4 -13 8 -70 -53 -68 -73 1 -8 -28 -45 -64 -82 -36 -38 -61 -68 -56 -68 5 0 -3 -13 -18 -28 -15 -16 -24 -33 -20 -38 5 -5 4 -6 -1 -1 -5 4 -25 -7 -43 -25 l-33 -32 57 -58 c32 -32 54 -58 49 -58 -5 0 -3 -6 3 -14 7 -8 20 -13 30 -11 21 4 199 -169 183 -179 -5 -3 -15 1 -22 9 -7 8 -17 12 -23 8 -5 -3 -7 -1 -3 5 7 12 -11 27 -35 27 -19 0 -51 24 -44 35 2 4 -7 18 -20 30 -14 13 -25 19 -25 14 0 -5 -54 45 -120 111 -66 66 -120 116 -120 111 0 -5 -6 -4 -12 1 -7 6 -26 9 -41 8 -25 -2 6 32 219 246 136 136 251 246 255 244 3 -3 14 4 24 15 10 11 21 18 25 15 4 -2 17 7 30 20 18 19 26 22 37 13 7 -6 11 -13 8 -16z"></path> <path d="M2506 992 c-3 -5 1 -9 9 -9 8 0 12 4 9 9 -3 4 -7 8 -9 8 -2 0 -6 -4 -9 -8z"></path> <path d="M2474 958 c-3 -5 -9 -6 -13 -3 -5 2 -16 -4 -26 -15 -10 -11 -21 -18 -24 -15 -4 2 -115 -104 -246 -235 -131 -131 -230 -237 -219 -236 10 2 25 -1 32 -7 6 -5 12 -6 12 -1 0 5 54 -45 120 -111 66 -66 120 -116 120 -110 0 5 13 -4 30 -20 16 -15 27 -32 24 -36 -6 -10 16 -24 38 -24 9 0 32 -13 50 -30 18 -16 -5 9 -51 57 -48 50 -90 85 -100 83 -18 -3 -53 24 -46 35 2 3 -20 31 -50 60 l-55 54 62 63 c34 35 58 63 53 63 -5 0 20 30 56 68 36 37 65 74 64 82 -1 8 34 52 78 96 51 52 75 84 68 89 -9 5 -9 11 1 22 7 9 12 18 11 20 -9 11 -1 14 11 4 10 -8 16 -9 21 -1 3 5 3 10 -1 10 -4 0 2 10 14 23 l22 23 -26 0 c-14 0 -28 -4 -30 -8z m21 -18 c-8 -9 -12 -21 -8 -25 5 -5 1 -4 -8 3 -13 10 -19 9 -29 -3 -7 -8 -9 -15 -5 -15 4 0 2 -6 -4 -14 -9 -11 -9 -16 0 -21 7 -5 -18 -37 -69 -89 -46 -47 -79 -88 -77 -97 2 -10 -25 -44 -61 -80 -34 -34 -61 -65 -59 -69 2 -4 -23 -33 -55 -65 l-60 -59 57 -61 c32 -33 16 -20 -35 30 -50 49 -92 86 -92 81 0 -5 -6 -3 -13 3 -8 6 -18 8 -23 4 -5 -4 94 97 220 224 127 128 233 230 237 228 3 -3 14 4 24 15 10 11 21 17 26 15 4 -3 10 -2 13 3 3 5 12 9 21 9 13 0 13 -2 0 -17z m-209 -741 c26 -26 41 -47 33 -46 -8 2 -14 5 -14 9 0 12 -68 77 -76 72 -4 -2 -10 -1 -13 4 -3 5 1 9 9 9 8 0 35 -22 61 -48z"></path> <path d="M2435 920 c-10 -11 -21 -18 -24 -15 -4 2 -105 -94 -225 -214 -131 -131 -214 -221 -207 -225 6 -4 11 -4 11 0 0 5 15 -6 33 -24 l33 -32 59 60 c33 33 55 60 50 60 -5 0 20 30 56 68 36 37 65 74 64 82 -1 8 34 52 78 96 51 52 75 84 68 89 -9 5 -9 10 0 21 6 8 8 14 4 14 -5 0 0 9 10 20 10 11 16 20 13 20 -3 0 -13 -9 -23 -20z m-16 -36 c-7 -8 -6 -14 2 -19 7 -5 -17 -37 -68 -89 -44 -44 -79 -88 -78 -96 1 -8 -28 -45 -64 -82 -36 -38 -61 -68 -56 -68 5 0 -15 -25 -45 -55 l-54 -55 -31 30 c-17 17 -36 27 -41 23 -5 -4 87 90 204 208 118 119 220 216 228 216 10 0 11 -4 3 -13z"></path> <path d="M2202 687 l-203 -203 29 -27 28 -27 49 50 c27 28 45 50 40 50 -5 0 20 30 56 68 36 37 65 74 64 82 -1 8 34 52 78 96 49 51 75 84 68 88 -6 4 -9 12 -6 17 4 5 5 9 3 9 -2 0 -94 -91 -206 -203z m131 89 c-44 -44 -79 -88 -78 -96 1 -8 -28 -45 -64 -82 -36 -38 -61 -68 -56 -68 5 0 -11 -20 -35 -45 l-44 -45 -23 22 -24 22 193 193 c105 105 196 189 201 186 5 -3 -27 -42 -70 -87z"></path> <path d="M2207 672 c-180 -180 -187 -189 -169 -205 17 -16 20 -15 57 23 22 22 35 40 30 40 -5 0 20 30 56 68 36 37 65 74 64 82 -1 8 35 52 79 98 44 45 78 82 76 82 -3 0 -90 -85 -193 -188z m29 3 c-1 -9 -31 -45 -66 -80 -36 -36 -60 -65 -55 -65 5 0 -6 -16 -25 -35 -26 -27 -36 -32 -47 -23 -12 9 5 31 89 115 56 57 103 103 104 103 1 0 1 -7 0 -15z"></path> <path d="M2131 576 c-51 -51 -89 -96 -84 -99 6 -4 23 7 38 23 16 17 25 30 20 30 -5 0 22 32 60 70 38 39 67 70 65 70 -3 0 -47 -42 -99 -94z m-31 -49 c0 -2 -12 -14 -27 -28 l-28 -24 24 28 c23 25 31 32 31 24z"></path> <path d="M1324 1098 l-29 -33 33 29 c30 28 37 36 29 36 -2 0 -16 -15 -33 -32z"></path> <path d="M2639 1128 c-6 -21 -5 -39 2 -44 5 -3 7 -10 3 -15 -3 -5 -11 -6 -17 -2 -8 5 -8 2 0 -9 7 -8 11 -18 8 -21 -3 -4 -2 -5 2 -2 3 3 13 -1 22 -7 12 -9 11 -7 -2 8 -16 19 -16 22 -2 34 14 12 14 15 0 30 -8 9 -12 20 -8 23 3 4 3 7 0 7 -4 0 -7 -1 -8 -2z"></path> <path d="M1098 921 c-174 -176 -176 -180 -28 -33 91 89 169 159 174 155 4 -4 6 -1 4 7 -1 8 3 14 10 13 6 -2 11 3 10 10 -2 6 2 11 8 10 7 -1 19 6 28 16 13 14 13 18 2 18 -8 0 -101 -88 -208 -196z"></path> <path d="M1454 1098 l-19 -23 23 19 c21 18 27 26 19 26 -2 0 -12 -10 -23 -22z"></path> <path d="M1149 1073 l-24 -28 28 24 c15 14 27 26 27 28 0 8 -8 1 -31 -24z"></path> <path d="M1479 1073 c-13 -16 -12 -17 4 -4 16 13 21 21 13 21 -2 0 -10 -8 -17 -17z"></path> <path d="M1339 1063 c-13 -16 -12 -17 4 -4 9 7 17 15 17 17 0 8 -8 3 -21 -13z"></path> <path d="M1413 1065 c0 -8 4 -12 9 -9 5 3 6 10 3 15 -9 13 -12 11 -12 -6z"></path> <path d="M1030 803 l-255 -258 258 255 c239 237 262 260 254 260 -1 0 -117 -116 -257 -257z"></path> <path d="M1099 1023 c-13 -16 -12 -17 4 -4 9 7 17 15 17 17 0 8 -8 3 -21 -13z"></path> <path d="M1294 1018 l-19 -23 23 19 c12 11 22 21 22 23 0 8 -8 2 -26 -19z"></path> <path d="M269 993 c12 -23 166 -173 177 -173 5 0 -34 43 -86 95 -52 52 -96 95 -98 95 -1 0 2 -8 7 -17z"></path> <path d="M1334 978 l-29 -33 33 29 c30 28 37 36 29 36 -2 0 -16 -15 -33 -32z"></path> <path d="M1039 963 l-34 -38 38 34 c34 33 42 41 34 41 -2 0 -19 -17 -38 -37z"></path> <path d="M1214 938 l-19 -23 23 19 c21 18 27 26 19 26 -2 0 -12 -10 -23 -22z"></path> <path d="M1195 788 l-170 -173 173 170 c94 93 172 171 172 172 0 8 -17 -9 -175 -169z"></path> <path d="M1276 928 c3 -5 10 -6 15 -3 13 9 11 12 -6 12 -8 0 -12 -4 -9 -9z"></path> <path d="M1490 937 c0 -9 299 -307 308 -307 13 0 302 281 302 293 0 7 -67 -56 -150 -138 l-149 -149 -151 149 c-177 176 -160 160 -160 152z"></path> <path d="M900 823 l-95 -98 98 95 c53 52 97 96 97 97 0 8 -12 -4 -100 -94z"></path> <path d="M1149 873 l-34 -38 38 34 c34 33 42 41 34 41 -2 0 -19 -17 -38 -37z"></path> <path d="M1255 900 c-4 -6 -11 -7 -17 -4 -6 4 -8 2 -5 -3 8 -13 -27 -46 -38 -36 -4 5 -5 2 0 -5 5 -10 15 -6 41 19 19 18 34 34 34 36 0 7 -9 2 -15 -7z"></path> <path d="M2615 812 c-55 -54 -170 -170 -255 -258 -85 -87 -39 -44 103 96 141 140 257 256 257 257 0 7 -11 -3 -105 -95z"></path> <path d="M2865 753 c71 -73 130 -131 132 -129 3 3 -162 171 -223 226 -22 19 19 -25 91 -97z"></path> <path d="M470 850 c-8 -5 -12 -12 -9 -15 4 -3 12 1 19 10 14 17 11 19 -10 5z"></path> <path d="M1069 793 l-34 -38 38 34 c34 33 42 41 34 41 -2 0 -19 -17 -38 -37z"></path> <path d="M1175 820 c-4 -6 -11 -7 -17 -4 -6 4 -8 2 -5 -3 8 -13 -27 -46 -38 -36 -4 5 -5 2 0 -5 5 -10 15 -6 41 19 19 18 34 34 34 36 0 7 -9 2 -15 -7z"></path> <path d="M25 780 c-16 -16 -26 -32 -24 -35 3 -3 18 9 34 25 16 16 26 32 24 35 -3 3 -18 -9 -34 -25z"></path> <path d="M80 797 c0 -5 126 -133 150 -152 40 -32 8 5 -74 86 -64 63 -76 74 -76 66z"></path> <path d="M980 705 c-24 -25 -42 -45 -39 -45 3 0 25 20 49 45 24 25 42 45 39 45 -3 0 -25 -20 -49 -45z"></path> <path d="M1095 740 c-4 -6 -11 -7 -17 -4 -6 4 -8 3 -5 -3 7 -11 -116 -136 -126 -128 -4 3 -5 2 -2 -2 3 -4 -23 -36 -57 -72 -35 -37 1 -3 80 74 78 77 142 141 142 142 0 7 -9 2 -15 -7z"></path> <path d="M2537 572 l-177 -178 128 -124 127 -125 -119 122 c-109 111 -118 123 -105 140 28 36 319 323 326 323 5 0 67 -58 138 -130 71 -71 131 -127 134 -124 5 5 -259 274 -269 274 -3 0 -85 -80 -183 -178z"></path> <path d="M881 706 c-8 -10 -9 -16 -1 -21 5 -3 10 -5 11 -3 4 18 7 38 4 38 -1 0 -8 -6 -14 -14z"></path> <path d="M1210 653 l-45 -48 45 42 45 43 102 -102 c57 -57 103 -100 103 -98 0 3 -46 51 -103 108 l-103 102 -44 -47z"></path> <path d="M843 668 c-4 -7 -8 -17 -8 -23 0 -5 -5 -10 -12 -10 -14 0 -28 -13 -28 -28 -1 -7 -7 -11 -14 -9 -7 1 -9 -2 -6 -9 8 -13 75 48 72 65 -1 6 4 10 11 8 8 -1 11 2 7 8 -8 13 -12 13 -22 -2z"></path> <path d="M890 615 c-18 -18 -38 -33 -44 -32 -5 1 -10 -2 -11 -8 -1 -17 -16 -36 -25 -30 -9 6 -23 -12 -26 -32 -1 -7 -1 -13 0 -13 1 0 35 34 76 75 41 41 72 75 69 75 -3 0 -20 -16 -39 -35z"></path> <path d="M117 502 c-64 -66 -117 -123 -117 -127 0 -5 2 -6 4 -4 224 219 253 249 240 249 -6 0 -63 -53 -127 -118z"></path> <path d="M975 568 l-40 -43 43 40 c39 36 47 45 39 45 -2 0 -21 -19 -42 -42z"></path> <path d="M1139 583 c-13 -16 -12 -17 4 -4 9 7 17 15 17 17 0 8 -8 3 -21 -13z"></path> <path d="M1180 533 l-65 -67 60 54 c54 49 82 80 73 80 -2 0 -33 -30 -68 -67z"></path> <path d="M1260 591 c0 -3 44 -49 97 -101 54 -52 86 -82 73 -65 -36 43 -170 174 -170 166z"></path> <path d="M2625 483 l-91 -93 93 -92 92 -92 93 92 93 92 -95 93 -95 92 -90 -92z m183 -6 l83 -83 -88 -87 -88 -86 -85 84 -85 85 85 85 c46 47 87 85 90 85 3 0 43 -37 88 -83z"></path> <path d="M729 558 c0 -2 -2 -11 -4 -21 -3 -15 -1 -16 11 -6 7 6 11 15 8 20 -5 9 -13 12 -15 7z"></path> <path d="M1099 543 c-13 -16 -12 -17 4 -4 16 13 21 21 13 21 -2 0 -10 -8 -17 -17z"></path> <path d="M599 523 l-24 -28 28 24 c25 23 32 31 24 31 -2 0 -14 -12 -28 -27z"></path> <path d="M515 288 l-250 -253 253 250 c234 232 257 255 249 255 -1 0 -115 -114 -252 -252z"></path> <path d="M673 485 c0 -8 4 -12 9 -9 5 3 6 10 3 15 -9 13 -12 11 -12 -6z"></path> <path d="M1039 483 c-13 -16 -12 -17 4 -4 16 13 21 21 13 21 -2 0 -10 -8 -17 -17z"></path> <path d="M749 473 c-13 -16 -12 -17 4 -4 9 7 17 15 17 17 0 8 -8 3 -21 -13z"></path> <path d="M1496 450 c17 -19 34 -42 36 -50 3 -8 7 -10 11 -4 3 6 -13 28 -36 50 -39 36 -40 37 -11 4z"></path> <path d="M629 453 c-13 -16 -12 -17 4 -4 16 13 21 21 13 21 -2 0 -10 -8 -17 -17z"></path> <path d="M715 460 c-3 -5 -3 -10 1 -10 4 0 -1 -10 -12 -22 -19 -23 -19 -23 2 -5 11 9 21 24 21 32 0 18 -3 19 -12 5z"></path> <path d="M784 428 l-29 -33 33 29 c17 17 32 31 32 33 0 8 -8 1 -36 -29z"></path> <path d="M569 423 l-24 -28 28 24 c25 23 32 31 24 31 -2 0 -14 -12 -28 -27z"></path> <path d="M514 368 l-19 -23 23 19 c21 18 27 26 19 26 -2 0 -12 -10 -23 -22z"></path> <path d="M559 386 c-1 -3 -2 -12 -3 -18 0 -7 -7 -13 -13 -13 -7 0 -13 -4 -12 -10 1 -17 5 -16 28 9 14 15 19 26 12 31 -6 3 -12 4 -12 1z"></path> <path d="M774 368 l-19 -23 23 19 c21 18 27 26 19 26 -2 0 -12 -10 -23 -22z"></path> <path d="M1405 366 c-48 -55 -58 -66 -54 -66 3 0 25 20 49 45 24 25 40 45 35 44 -6 -1 -19 -11 -30 -23z"></path> <path d="M2210 384 c0 -7 322 -328 365 -364 17 -13 -58 64 -165 173 -107 108 -196 197 -197 197 -2 0 -3 -3 -3 -6z"></path> <path d="M1484 348 l-29 -33 33 29 c17 17 32 31 32 33 0 8 -8 1 -36 -29z"></path> <path d="M685 330 c-21 -21 -43 -36 -48 -33 -6 3 -7 2 -4 -4 6 -9 -140 -162 -155 -163 -5 0 -8 -3 -8 -7 -1 -5 -15 -24 -33 -43 -17 -19 41 37 131 125 89 88 162 161 162 162 0 7 -9 0 -45 -37z"></path> <path d="M459 313 l-24 -28 28 24 c25 23 32 31 24 31 -2 0 -14 -12 -28 -27z"></path> <path d="M1723 333 c-6 -2 -69 -66 -139 -141 l-127 -137 139 137 139 138 128 -127 c70 -71 127 -124 127 -119 0 10 -219 235 -240 245 -8 5 -20 6 -27 4z"></path> <path d="M451 276 c-31 -31 -47 -54 -37 -52 17 2 46 26 31 26 -4 0 0 9 10 20 10 11 23 17 29 13 6 -3 8 -2 3 2 -4 5 0 17 10 27 36 39 4 15 -46 -36z"></path> <path d="M1850 326 c0 -2 8 -10 18 -17 15 -13 16 -12 3 4 -13 16 -21 21 -21 13z"></path> <path d="M2854 180 c-77 -77 -137 -140 -134 -140 3 0 68 63 145 140 77 77 137 140 134 140 -3 0 -69 -63 -145 -140z"></path> <path d="M684 278 l-29 -33 33 29 c30 28 37 36 29 36 -2 0 -16 -15 -33 -32z"></path> <path d="M539 288 c-5 -18 -6 -38 -1 -34 7 8 12 36 6 36 -2 0 -4 -1 -5 -2z"></path> <path d="M360 213 l-65 -68 68 65 c37 35 67 66 67 67 0 8 -10 -2 -70 -64z"></path> <path d="M1920 256 c0 -2 8 -10 18 -17 15 -13 16 -12 3 4 -13 16 -21 21 -21 13z"></path> <path d="M503 245 c4 -5 -5 -21 -20 -37 -15 -15 -24 -28 -22 -28 3 0 18 13 33 29 21 22 25 31 14 37 -7 4 -10 3 -5 -1z"></path> <path d="M376 188 c3 -5 10 -6 15 -3 13 9 11 12 -6 12 -8 0 -12 -4 -9 -9z"></path> <path d="M341 166 c-8 -10 -9 -16 -1 -21 5 -3 10 -5 11 -3 4 18 7 38 4 38 -1 0 -8 -6 -14 -14z"></path> <path d="M433 173 c6 -10 -21 -42 -30 -35 -3 2 -3 -12 1 -15 1 -2 13 8 25 21 17 18 19 26 10 31 -7 5 -10 4 -6 -2z"></path> <path d="M2000 176 c0 -2 8 -10 18 -17 15 -13 16 -12 3 4 -13 16 -21 21 -21 13z"></path> <path d="M2915 78 l-80 -82 70 64 c63 59 102 100 93 100 -2 0 -39 -37 -83 -82z"></path> <path d="M219 73 l-34 -38 38 34 c34 33 42 41 34 41 -2 0 -19 -17 -38 -37z"></path> <path d="M375 100 c-4 -6 -12 -7 -18 -4 -7 4 -9 3 -4 -1 4 -5 -1 -18 -10 -29 -10 -12 -3 -8 15 8 17 17 32 31 32 33 0 7 -9 2 -15 -7z"></path> <path d="M369 63 l-24 -28 28 24 c15 14 27 26 27 28 0 8 -8 1 -31 -24z"></path> <path d="M2952 47 l-42 -43 43 0 43 0 0 43 c0 24 -1 43 -1 43 -1 0 -20 -19 -43 -43z m33 -4 c-1 -22 -6 -27 -28 -28 l-28 -2 27 29 c15 15 28 28 29 28 1 0 1 -12 0 -27z"></path> <path d="M2961 37 c-8 -10 -7 -14 2 -14 8 0 14 6 14 14 0 7 -1 13 -2 13 -2 0 -8 -6 -14 -13z"></path> <path d="M1942 35 c-20 -19 -32 -35 -26 -35 5 0 25 16 44 35 44 45 31 45 -18 0z"></path> </g> </svg> 