<?xml version="1.0" standalone="no"?>
<!DOCTYPE svg PUBLIC "-//W3C//DTD SVG 20010904//EN"
 "http://www.w3.org/TR/2001/REC-SVG-20010904/DTD/svg10.dtd">
<svg version="1.0" xmlns="http://www.w3.org/2000/svg"
 width="190.000000pt" height="165.000000pt" viewBox="0 0 190.000000 165.000000"
 preserveAspectRatio="xMidYMid meet">

<g transform="translate(0.000000,165.000000) scale(0.100000,-0.100000)"
fill="#000000" stroke="none">
<path d="M837 1538 l-38 -10 27 -14 c21 -12 34 -12 61 -3 21 7 81 9 159 6 69
-2 123 -3 121 0 -7 6 -219 33 -257 32 -19 -1 -52 -6 -73 -11z"/>
<path d="M766 1511 c-4 -5 -24 -12 -46 -16 -22 -4 -40 -12 -40 -18 0 -6 -8
-20 -17 -31 l-18 -21 23 19 c12 11 30 20 40 22 57 7 81 17 79 35 -1 20 -12 25
-21 10z"/>
<path d="M1196 1496 c6 -15 61 -42 70 -33 5 5 -57 47 -69 47 -4 0 -4 -6 -1
-14z"/>
<path d="M605 1444 c-61 -36 -75 -46 -116 -87 -42 -41 -46 -52 -26 -63 6 -4 9
-4 5 0 -8 9 51 66 67 66 6 0 21 14 34 30 12 17 26 28 30 26 4 -3 18 8 30 24
12 17 20 30 19 29 -2 0 -21 -12 -43 -25z"/>
<path d="M1301 1457 c2 -1 13 -9 24 -17 19 -14 19 -14 6 3 -7 9 -18 17 -24 17
-6 0 -8 -1 -6 -3z"/>
<path d="M378 1237 c-48 -65 -128 -219 -128 -248 0 -22 27 -32 34 -13 3 9 6
28 6 42 0 38 11 73 20 67 4 -3 14 9 21 27 7 17 31 59 54 92 74 109 69 134 -7
33z"/>
<path d="M750 1043 c1 -32 -2 -83 -5 -115 l-7 -56 -44 -11 c-88 -22 -146 -118
-123 -203 24 -92 82 -133 178 -126 91 6 140 52 155 143 9 55 -9 80 -47 66 -22
-9 -27 -17 -27 -47 0 -74 -94 -122 -149 -76 -44 36 -43 125 1 157 25 17 65 19
102 6 21 -8 27 -6 41 16 16 24 16 28 1 60 -22 45 -13 55 31 37 20 -9 46 -13
58 -10 20 5 23 1 29 -32 10 -58 20 -69 48 -50 19 13 23 24 23 69 0 94 61 149
165 149 43 0 56 -5 80 -28 40 -40 47 -89 21 -140 -30 -59 -98 -89 -140 -63
-11 7 -11 17 5 56 10 27 29 61 42 76 32 38 23 74 -16 64 -33 -8 -59 -31 -78
-66 -15 -30 -134 -325 -134 -333 0 -4 17 -6 39 -6 41 0 45 5 81 100 21 56 26
59 67 48 76 -21 165 15 201 82 45 82 36 163 -25 222 -68 65 -176 74 -275 23
-48 -25 -49 -25 -69 -6 -27 25 -75 34 -119 21 -49 -14 -58 -13 -65 10 -4 11
-15 20 -26 20 -18 0 -20 -6 -19 -57z m188 -67 c2 -9 -7 -20 -20 -26 -32 -15
-81 3 -76 27 6 35 89 34 96 -1z m-127 1 c-1 -4 -1 -14 -1 -23 0 -8 -4 -12 -10
-9 -13 8 -13 48 1 43 6 -2 10 -7 10 -11z m-21 -37 c0 -5 -4 -10 -10 -10 -5 0
-10 5 -10 10 0 6 5 10 10 10 6 0 10 -4 10 -10z m0 -30 c0 -5 -2 -10 -4 -10 -3
0 -8 5 -11 10 -3 6 -1 10 4 10 6 0 11 -4 11 -10z m0 -70 c8 -5 11 -12 8 -16
-4 -3 -14 1 -23 10 -18 17 -9 21 15 6z m-35 -10 c3 -5 1 -10 -4 -10 -6 0 -11
5 -11 10 0 6 2 10 4 10 3 0 8 -4 11 -10z m345 -50 c-8 -6 -11 -10 -5 -10 5 0
4 -5 -3 -12 -9 -9 -15 -9 -24 0 -9 9 -9 12 1 12 7 0 10 4 6 9 -3 5 3 11 12 13
24 6 31 -1 13 -12z m-486 -102 c-9 -14 -23 2 -17 18 4 12 8 13 14 3 4 -7 5
-17 3 -21z"/>
<path d="M245 917 c-7 -25 -4 -123 9 -283 8 -105 130 -295 253 -393 91 -72
207 -134 235 -125 11 3 36 -2 56 -12 47 -23 231 -29 312 -9 85 20 169 52 204
77 17 13 42 29 56 35 46 20 158 133 203 206 54 86 102 220 110 301 4 48 3 56
-8 45 -7 -8 -17 -42 -23 -76 -13 -74 -73 -217 -110 -263 -97 -117 -194 -210
-220 -210 -5 0 -17 -9 -27 -20 -10 -11 -28 -20 -40 -20 -12 0 -32 -9 -45 -20
-14 -12 -37 -20 -60 -20 -21 0 -52 -6 -68 -13 -23 -9 -54 -11 -114 -5 -46 4
-103 8 -128 9 -25 1 -50 6 -55 10 -6 4 -22 10 -35 12 -14 3 -45 16 -70 30 -25
14 -65 37 -90 50 -25 14 -56 37 -69 51 -14 14 -30 26 -36 26 -11 0 -55 53 -55
67 0 4 -13 21 -29 38 -40 40 -75 108 -91 175 -8 30 -17 60 -21 65 -11 16 -31
166 -26 194 3 14 2 44 -2 66 -8 40 -8 40 -16 12z"/>
</g>
</svg>
